<svg width="16" height="17" viewBox="0 0 16 17" fill="none" xmlns="http://www.w3.org/2000/svg">
<g clip-path="url(#clip0_155_54)">
<path d="M8 0.807007C3.5888 0.807007 0 4.33285 0 8.66666C0 13.0005 3.5888 16.5263 8 16.5263C12.4112 16.5263 16 13.0005 16 8.66666C16 4.33285 12.4111 0.807007 8 0.807007ZM8 15.179C4.34509 15.179 1.37144 12.2574 1.37144 8.66666C1.37144 5.07587 4.34509 2.15439 8 2.15439C11.6549 2.15439 14.6286 5.07587 14.6286 8.66666C14.6286 12.2574 11.6548 15.179 8 15.179Z" fill="#EDEDED"/>
<path d="M11.0955 5.62581C10.8276 5.36265 10.3933 5.36265 10.1259 5.62581L8.00001 7.71468L5.87411 5.62581C5.60625 5.36265 5.17237 5.36265 4.90451 5.62581C4.63665 5.88897 4.63665 6.31524 4.90451 6.5784L7.0304 8.66718L4.90442 10.756C4.63656 11.0192 4.63656 11.4455 4.90442 11.7086C5.0383 11.8402 5.21378 11.906 5.38927 11.906C5.56475 11.906 5.74041 11.8403 5.87411 11.7086L8.00001 9.61986L10.1259 11.7086C10.2598 11.8402 10.4353 11.906 10.6108 11.906C10.7862 11.906 10.9616 11.8403 11.0956 11.7086C11.3635 11.4455 11.3635 11.0192 11.0956 10.756L8.96961 8.66727L11.0955 6.57849C11.3634 6.31533 11.3634 5.88897 11.0955 5.62581Z" fill="#EDEDED"/>
</g>
<defs>
<clipPath id="clip0_155_54">
<rect width="16" height="15.7193" fill="white" transform="translate(0 0.807007)"/>
</clipPath>
</defs>
</svg>
