<svg width="20" height="40" viewBox="0 0 50 70" fill="none" xmlns="http://www.w3.org/2000/svg">
<path d="M25 0C11.2151 0 0 11.6033 0 25.866C0 39.6744 22.7912 68.1918 23.7614 69.3989C24.0674 69.7796 24.5213 70 25 70C25.4785 70 25.9326 69.7798 26.2386 69.3989C27.209 68.1916 50 39.6744 50 25.866C50 11.6033 38.7851 0 25 0ZM25 65.6884C22.9791 63.0776 18.7803 57.5149 14.6254 51.1558C7.16513 39.7382 3.22173 30.9931 3.22173 25.866C3.22173 13.4413 12.9915 3.33333 25 3.33333C37.0085 3.33333 46.7783 13.4413 46.7783 25.866C46.7783 30.9929 42.8351 39.738 35.3746 51.1558C31.2194 57.5149 27.0209 63.0776 25 65.6884Z" fill="black"/>
<path d="M33.1954 47.5459C32.4582 47.0305 31.4567 47.2314 30.9588 47.9941C28.785 51.3234 26.3498 54.8128 23.7209 58.3652C23.1801 59.0961 23.3141 60.1421 24.0205 60.7017C24.3126 60.9332 24.6569 61.0452 24.9986 61.0452C25.4827 61.0452 25.9617 60.8201 26.2787 60.3916C28.9463 56.7872 31.4191 53.2439 33.6284 49.8601C34.1264 49.0974 33.9327 48.0612 33.1954 47.5459Z" fill="black"/>
<path d="M25.0001 12.7777C17.7166 12.7777 11.791 18.9086 11.791 26.4444C11.791 33.9802 17.7166 40.111 25.0001 40.111C32.2836 40.111 38.2092 33.9802 38.2092 26.4444C38.2092 18.9086 32.2836 12.7777 25.0001 12.7777ZM25.0001 36.7777C19.4931 36.7777 15.0127 32.1422 15.0127 26.4444C15.0127 20.7466 19.4931 16.111 25.0001 16.111C30.5073 16.111 34.9875 20.7466 34.9875 26.4444C34.9875 32.1422 30.5073 36.7777 25.0001 36.7777Z" fill="black"/>
</svg>
