<svg width="40" height="40" viewBox="0 0 20 22" fill="none" xmlns="http://www.w3.org/2000/svg">
<path d="M10.2661 14.0621C9.91109 14.5769 9.91109 15.4117 10.2661 15.9265C10.4436 16.184 10.6762 16.3127 10.909 16.3127C11.1416 16.3127 11.3743 16.184 11.5517 15.9265L14.2789 11.9717C14.2999 11.9412 14.3199 11.9091 14.3388 11.8758C14.3429 11.8684 14.3465 11.8603 14.3506 11.8528C14.3649 11.8265 14.3789 11.8 14.3919 11.7722C14.3952 11.7649 14.398 11.7571 14.4012 11.7499C14.414 11.7209 14.4265 11.6917 14.4377 11.6613C14.4397 11.6561 14.4412 11.6505 14.4431 11.6452C14.4548 11.6123 14.466 11.579 14.4759 11.5445C14.4769 11.541 14.4775 11.5374 14.4785 11.5339C14.4886 11.4978 14.4979 11.461 14.5058 11.4233C14.5066 11.4193 14.5071 11.4151 14.508 11.411C14.5154 11.3742 14.5222 11.3369 14.5274 11.2987C14.5289 11.2881 14.5295 11.2772 14.5308 11.2665C14.5346 11.2348 14.5384 11.2032 14.5406 11.1708C14.5437 11.1272 14.5452 11.0834 14.5452 11.0393C14.5452 10.995 14.5437 10.9512 14.5406 10.9077C14.5384 10.8751 14.5346 10.8432 14.5307 10.8113C14.5294 10.8008 14.5288 10.7902 14.5274 10.7798C14.5221 10.7414 14.5153 10.7039 14.5078 10.6668C14.507 10.6629 14.5066 10.659 14.5057 10.6552C14.4978 10.6172 14.4884 10.5803 14.4782 10.5438C14.4773 10.5406 14.4767 10.5372 14.4757 10.5341C14.4658 10.4994 14.4546 10.4659 14.4428 10.4328C14.4409 10.4277 14.4395 10.4223 14.4376 10.4173C14.4263 10.3867 14.4137 10.3574 14.4009 10.3283C14.3977 10.3211 14.395 10.3135 14.3917 10.3064C14.3788 10.2786 14.3648 10.2519 14.3505 10.2256C14.3464 10.2181 14.3428 10.2101 14.3386 10.2027C14.3197 10.1694 14.2998 10.1373 14.2788 10.1068L11.5516 6.1519C11.1967 5.63703 10.621 5.63703 10.266 6.1519C9.91097 6.66676 9.91097 7.50146 10.266 8.01633L11.4413 9.72089H0.909085C0.407028 9.72089 0 10.3112 0 11.0393C0 11.7673 0.407028 12.3576 0.909085 12.3576H11.4414L10.2661 14.0621Z" fill="#F5F5F5"/>
<path d="M12.5636 0.254913C10.0821 0.254913 7.77335 2.04016 6.38772 5.0303C6.10766 5.63463 6.21845 6.45378 6.63517 6.85983C7.0519 7.26598 7.61674 7.10531 7.89674 6.50098C8.94407 4.24095 10.6887 2.89164 12.5636 2.89164C15.6615 2.89164 18.1818 6.54668 18.1818 11.0392C18.1818 15.5318 15.6615 19.1868 12.5636 19.1868C10.6943 19.1868 8.95243 17.8436 7.90432 15.5937C7.62323 14.9904 7.05814 14.8316 6.64208 15.2393C6.22609 15.6469 6.11663 16.4664 6.39772 17.0698C7.7845 20.0465 10.0895 21.8235 12.5636 21.8235C16.6641 21.8235 20 16.9857 20 11.0392C20 5.09279 16.664 0.254913 12.5636 0.254913Z" fill="#F5F5F5"/>
</svg>
