<svg width="10" height="15" viewBox="0 0 70 60" fill="none" xmlns="http://www.w3.org/2000/svg">
<path d="M17.5 35.3251H22.1506C23.625 46.2113 32.0119 52.5001 45.2375 52.5001C47.9588 52.5001 50.3431 52.2451 52.4956 51.8063V46.9313C50.3781 47.3776 47.9238 47.5688 45.2375 47.5688C36.05 47.5688 30.1219 43.0763 28.7219 35.3288H46.2962V31.8488H28.4244V28.3388C28.4244 27.9263 28.4244 27.5176 28.4594 27.1051H46.3006V23.6288H28.9538C30.6513 16.5113 36.4744 12.4351 45.2419 12.4351C47.9281 12.4351 50.3825 12.6226 52.5 13.0988V8.22756C50.1262 7.72324 47.6874 7.4788 45.2419 7.50006C32.4319 7.50006 24.1544 13.3838 22.2994 23.6251H17.5V27.1051H21.9188V31.8488H17.5V35.3288V35.3251Z" fill="black"/>
</svg>
