<svg width="40" height="40" viewBox="0 0 40 37" fill="none" xmlns="http://www.w3.org/2000/svg">
<path d="M29.662 23.3394L26.5385 19.8855V15.3104C26.5348 12.1487 25.471 9.10087 23.5528 6.7562C21.6347 4.41152 18.9985 2.93657 16.1538 2.61654V0H13.8462V2.61654C11.0015 2.93657 8.3653 4.41152 6.44715 6.7562C4.52901 9.10087 3.46524 12.1487 3.46154 15.3104V19.8855L0.337962 23.3394C0.121601 23.5786 3.47495e-05 23.9031 0 24.2414V28.069C0 28.4074 0.121566 28.7319 0.337954 28.9712C0.554342 29.2104 0.847827 29.3449 1.15385 29.3449H9.23077V30.336C9.20576 31.9545 9.72174 33.5263 10.6799 34.7503C11.638 35.9742 12.9709 36.7642 14.4231 36.9688C15.2252 37.0568 16.035 36.9582 16.8006 36.6793C17.5662 36.4005 18.2705 35.9475 18.8682 35.3496C19.4659 34.7517 19.9439 34.022 20.2713 33.2076C20.5987 32.3932 20.7683 31.512 20.7692 30.6207V29.3449H28.8462C29.1522 29.3449 29.4457 29.2104 29.662 28.9712C29.8784 28.7319 30 28.4074 30 28.069V24.2414C30 23.9031 29.8784 23.5786 29.662 23.3394ZM18.4615 30.6207C18.4615 31.6359 18.0968 32.6094 17.4477 33.3272C16.7985 34.0451 15.9181 34.4483 15 34.4483C14.0819 34.4483 13.2015 34.0451 12.5523 33.3272C11.9032 32.6094 11.5385 31.6359 11.5385 30.6207V29.3449H18.4615V30.6207Z" fill="#F5F5F5"/>
<circle cx="30.5" cy="9.5" r="9.5" fill="#FF3A3A"/>
</svg>
