<svg width="40" height="40" viewBox="0 0 20 23" fill="none" xmlns="http://www.w3.org/2000/svg">
<path fill-rule="evenodd" clip-rule="evenodd" d="M14.5944 2.22077C13.4729 1.10527 11.8903 0.490204 10.0435 0.490204C8.19676 0.490204 6.61414 1.10527 5.49272 2.22077C4.37217 3.3354 3.75702 4.90486 3.75702 6.73375C3.75702 9.19598 4.85327 10.783 6.21002 11.7356C6.4737 11.9207 6.7462 12.0813 7.02111 12.2198C5.50488 12.6272 4.27375 13.3375 3.2714 14.2185C1.68645 15.6115 0.704107 17.4038 0.0422781 19.0086C-0.0776112 19.2993 0.066191 19.63 0.363488 19.7472C0.660774 19.8645 0.998955 19.7239 1.11884 19.4331C1.74879 17.9056 2.64847 16.2923 4.04733 15.0628C5.43216 13.8457 7.33658 12.9773 10.0435 12.9773C12.5741 12.9773 14.401 13.7362 15.7571 14.8253C17.1245 15.9235 18.0454 17.3837 18.7052 18.8272C19.1454 19.7903 18.3728 20.9236 17.1601 20.9236H3.76682C3.44627 20.9236 3.18641 21.1778 3.18641 21.4912C3.18641 21.8047 3.44627 22.0588 3.76682 22.0588H17.1601C19.0779 22.0588 20.6022 20.1958 19.765 18.364C19.0645 16.8315 18.0513 15.1988 16.4938 13.948C15.5693 13.2056 14.4642 12.6069 13.1409 12.2402C13.8487 11.8576 14.4305 11.3497 14.8934 10.774C15.8951 9.52859 16.33 7.98265 16.33 6.73375C16.33 4.90486 15.7149 3.3354 14.5944 2.22077ZM13.7666 3.01661C14.6431 3.88856 15.1692 5.15708 15.1692 6.73375C15.1692 7.75524 14.8053 9.04727 13.981 10.0722C13.1725 11.0776 11.9109 11.8421 10.0435 11.8421C9.28828 11.8421 7.98526 11.5845 6.88706 10.8134C5.81872 10.0633 4.91784 8.81231 4.91784 6.73375C4.91784 5.15708 5.44391 3.88856 6.32049 3.01661C7.1962 2.14552 8.46653 1.62539 10.0435 1.62539C11.6205 1.62539 12.8909 2.14552 13.7666 3.01661Z" fill="#F5F5F5"/>
</svg>
