<svg width="40" height="40" viewBox="0 0 20 22" fill="none" xmlns="http://www.w3.org/2000/svg">
<g clip-path="url(#clip0_120_66)">
<path d="M19.3359 20.0468L14.6797 15.0254C15.8164 13.5299 16.4961 11.6216 16.4961 9.53633C16.4961 4.75498 12.8984 0.875153 8.46488 0.875153C4.02734 0.875153 0.429688 4.75498 0.429688 9.54056C0.429688 14.326 4.02734 18.2059 8.46488 18.2059C10.3946 18.2059 12.168 17.4729 13.5547 16.247L18.207 21.2642C18.5195 21.6012 19.0234 21.6012 19.3359 21.2642C19.6484 20.9272 19.6484 20.3838 19.3359 20.0468ZM2.02344 9.54056C2.02344 5.70704 4.90625 2.59812 8.46096 2.59812C12.0156 2.59812 14.8984 5.70704 14.8984 9.54056C14.8984 13.374 12.0156 16.4829 8.46096 16.4829C4.90625 16.4829 2.02344 13.374 2.02344 9.54056Z" fill="#F5F5F5"/>
</g>
<defs>
<clipPath id="clip0_120_66">
<rect width="20" height="21.5686" fill="white" transform="translate(0 0.411774)"/>
</clipPath>
</defs>
</svg>
