<svg width="40" height="40" viewBox="0 0 20 22" fill="none" xmlns="http://www.w3.org/2000/svg">
<path d="M19.9698 8.36447C19.8973 8.11221 19.7044 7.92834 19.4721 7.89025L13.309 6.8775L10.5529 0.564949C10.449 0.327094 10.2347 0.176483 10.0001 0.176483C9.76547 0.176483 9.55118 0.327094 9.44729 0.564949L6.69121 6.8775L0.527896 7.89025C0.295606 7.92843 0.102689 8.11231 0.0301911 8.36447C-0.0423069 8.61673 0.0181082 8.89361 0.186202 9.07878L4.64598 13.9925L3.59328 20.9305C3.55366 21.1919 3.64868 21.4562 3.83847 21.612C4.02827 21.7679 4.27995 21.7885 4.48767 21.665L10.0001 18.3895L15.5125 21.665C15.6027 21.7187 15.7013 21.745 15.7993 21.745C15.7999 21.745 15.8005 21.745 15.8011 21.745C15.8011 21.745 15.8011 21.745 15.8011 21.745C16.1416 21.745 16.4176 21.433 16.4176 21.0482C16.4176 20.9898 16.4112 20.933 16.3993 20.8787L15.3543 13.9924L19.8138 9.07869C19.9819 8.8937 20.0424 8.61673 19.9698 8.36447ZM14.2616 13.2503C14.1163 13.4104 14.0499 13.6411 14.0843 13.8671L14.9807 19.7746L10.2871 16.9855C10.1075 16.8788 9.89296 16.8788 9.71344 16.9855L5.01973 19.7746L5.91617 13.8671C5.95053 13.6411 5.8842 13.4104 5.73887 13.2503L1.94144 9.06633L7.18949 8.20401C7.3903 8.17103 7.5639 8.0285 7.65366 7.82279L10.0004 2.44791L12.3471 7.82279C12.4369 8.02841 12.6105 8.17103 12.8112 8.20401L18.059 9.06633L14.2616 13.2503Z" fill="#F5F5F5"/>
</svg>
