<svg width="40" height="40" viewBox="0 0 115 101" fill="none" xmlns="http://www.w3.org/2000/svg">
<path d="M114.744 38.2286C114.129 36.4887 112.493 35.2207 110.523 34.958L77.125 30.498L62.1883 2.67885C61.3075 1.03861 59.4899 0 57.5 0C55.5098 0 53.6921 1.03861 52.8117 2.67885L37.8761 30.4977L4.47654 34.9577C2.50725 35.2207 0.870822 36.4887 0.255984 38.2283C-0.358853 39.9682 0.15386 41.8778 1.57907 43.1545L25.747 64.805L20.0395 95.3822C19.7032 97.1852 20.5094 99.007 22.1193 100.082C23.0301 100.691 24.1088 101 25.1928 101C26.0248 101 26.8603 100.818 27.6253 100.448L57.4996 86.0129L87.3736 100.448C88.1432 100.82 88.986 100.997 89.8208 101C92.705 100.996 95.0417 98.8462 95.0417 96.1946C95.0417 95.8255 94.9964 95.4658 94.9106 95.1207L89.2527 64.8054L113.421 43.1545C114.846 41.8778 115.359 39.9682 114.744 38.2286Z" fill="black"/>
</svg>
