<svg width="10" height="16" viewBox="0 0 16 16" fill="none" xmlns="http://www.w3.org/2000/svg">
<path d="M9.23344 2.59277V1.35032H9.90623C10.3485 1.35032 10.7072 1.04801 10.7072 0.675158C10.7072 0.302309 10.3486 0 9.90623 0H6.09377C5.65147 0 5.29284 0.302309 5.29284 0.675158C5.29284 1.04801 5.65147 1.35032 6.09377 1.35032H6.76656V2.59277C2.93886 3.09428 0 5.89137 0 9.25631C0 12.9748 3.58883 16 8 16C12.4112 16 16 12.9748 16 9.25631C16 5.89137 13.0611 3.09428 9.23344 2.59277V2.59277ZM8 14.6497C4.47204 14.6497 1.60187 12.2302 1.60187 9.25636C1.60187 6.28248 4.4721 3.86298 8 3.86298C11.5279 3.86298 14.3981 6.28248 14.3981 9.25636C14.3981 12.2302 11.528 14.6497 8 14.6497V14.6497Z" fill="black"/>
<path d="M8.80097 8.97578V5.79503C8.80097 5.42218 8.44234 5.11987 8.00003 5.11987C7.55772 5.11987 7.1991 5.42218 7.1991 5.79503V9.36527C7.1991 9.47507 7.251 9.58035 7.34327 9.6578L9.5839 11.5386C9.89742 11.8018 10.4044 11.8008 10.7166 11.5366C11.0287 11.2724 11.0276 10.8449 10.7142 10.5818L8.80097 8.97578V8.97578Z" fill="black"/>
</svg>
